<?xml version="1.0" standalone="no"?>
<!DOCTYPE svg PUBLIC "-//W3C//DTD SVG 20010904//EN"
 "http://www.w3.org/TR/2001/REC-SVG-20010904/DTD/svg10.dtd">
<svg version="1.0" xmlns="http://www.w3.org/2000/svg"
 width="500.000000pt" height="500.000000pt" viewBox="0 0 500.000000 500.000000"
 preserveAspectRatio="xMidYMid meet">

<g transform="translate(0.000000,500.000000) scale(0.100000,-0.100000)"
fill="#000000" stroke="none">
<path d="M718 2873 c-22 -6 -35 -50 -21 -72 6 -9 25 -20 42 -25 18 -5 39 -19
47 -31 12 -18 244 -639 244 -652 0 -2 21 -3 46 -1 l46 3 112 310 c62 171 118
320 124 332 7 13 23 25 35 27 12 3 34 7 49 10 36 8 54 40 39 72 -10 24 -13 24
-156 24 -142 0 -146 -1 -154 -22 -15 -40 12 -78 56 -78 22 0 21 -5 -44 -195
-37 -107 -70 -195 -74 -195 -3 0 -37 83 -74 185 -79 217 -107 266 -161 287
-43 17 -129 29 -156 21z"/>
<path d="M1708 2870 c-12 -7 -18 -23 -18 -45 0 -31 3 -35 40 -46 22 -7 40 -18
40 -24 0 -16 -207 -503 -226 -532 -9 -15 -24 -23 -42 -23 -34 0 -52 -16 -52
-46 0 -47 21 -54 165 -54 130 0 135 1 150 24 12 18 13 30 6 50 -9 23 -16 26
-57 26 -46 0 -46 0 -41 29 4 17 13 46 21 65 l15 36 121 0 121 0 19 -42 c11
-24 20 -53 20 -65 0 -20 -5 -23 -35 -23 -29 0 -37 -5 -46 -26 -7 -20 -6 -32 6
-50 15 -23 19 -24 161 -24 81 0 154 5 165 10 22 12 26 59 7 78 -7 7 -22 12
-35 12 -12 0 -29 10 -37 23 -8 12 -62 141 -121 287 -110 273 -135 319 -185
345 -38 20 -140 29 -162 15z m166 -344 c20 -49 34 -91 32 -93 -2 -2 -37 -3
-79 -1 l-75 3 23 55 c13 30 30 73 39 94 9 22 18 37 20 35 2 -2 20 -44 40 -93z"/>
<path d="M3191 2861 c-36 -36 -20 -75 34 -85 19 -4 35 -11 35 -16 0 -14 -220
-533 -232 -547 -6 -7 -22 -13 -37 -13 -34 0 -51 -17 -51 -50 0 -46 14 -50 160
-50 146 0 160 4 160 50 0 36 -17 50 -62 50 -45 0 -47 10 -21 83 l17 47 123 0
123 0 16 -37 c8 -21 18 -50 21 -65 5 -26 3 -28 -30 -28 -52 0 -76 -50 -41 -84
23 -23 305 -23 328 0 33 32 14 84 -31 84 -12 0 -29 10 -37 23 -9 12 -65 144
-125 292 -60 148 -118 280 -129 294 -29 39 -70 59 -138 66 -55 7 -64 5 -83
-14z m167 -326 c18 -47 32 -90 32 -95 0 -6 -33 -10 -76 -10 -42 0 -74 4 -72 9
32 84 74 181 78 181 3 0 20 -38 38 -85z"/>
<path d="M2310 2851 c-22 -42 1 -77 55 -83 l30 -3 3 -274 c3 -296 3 -291 -50
-291 -51 0 -64 -83 -15 -95 41 -11 555 -1 567 11 6 6 17 50 25 99 15 97 10
121 -30 131 -41 10 -63 -4 -81 -54 -27 -77 -51 -92 -142 -92 -42 0 -83 4 -90
8 -9 7 -12 70 -10 283 l3 274 39 6 c40 7 56 21 56 55 0 40 -16 44 -187 44
-150 0 -163 -1 -173 -19z"/>
<path d="M3803 2859 c-16 -17 -17 -66 -1 -75 7 -4 28 -10 48 -14 l35 -5 3
-269 c2 -190 -1 -273 -9 -282 -6 -8 -23 -14 -38 -14 -33 0 -51 -17 -51 -46 0
-48 20 -54 185 -54 126 0 156 3 169 16 30 29 11 84 -29 84 -53 0 -55 5 -55
116 0 94 2 104 18 104 24 0 48 -28 102 -115 98 -158 161 -205 280 -205 73 0
90 10 90 51 0 31 -14 44 -56 53 -39 9 -77 48 -153 161 l-61 89 37 19 c112 57
159 164 114 262 -23 50 -53 78 -116 107 -47 21 -65 23 -275 26 -171 2 -228 0
-237 -9z m404 -100 c35 -13 63 -67 63 -121 0 -38 -6 -54 -29 -80 -27 -30 -34
-33 -105 -36 l-76 -4 0 120 c0 105 2 122 18 132 18 11 87 5 129 -11z"/>
<path d="M2010 1825 l0 -85 35 0 c46 0 80 17 94 47 30 66 -8 123 -84 123 l-45
0 0 -85z m100 55 c24 -24 26 -77 3 -102 -9 -10 -30 -18 -50 -18 l-33 0 0 70 0
70 30 0 c17 0 39 -9 50 -20z"/>
<path d="M2206 1895 c-21 -22 -29 -52 -22 -91 12 -60 79 -84 127 -45 31 25 34
98 5 130 -23 25 -87 29 -110 6z m98 -17 c38 -54 3 -137 -52 -123 -35 8 -52 31
-52 70 0 44 25 75 60 75 18 0 34 -8 44 -22z"/>
<path d="M2380 1825 c0 -50 4 -85 10 -85 6 0 10 18 10 40 l0 40 45 0 45 0 0
-40 c0 -22 5 -40 10 -40 6 0 10 35 10 85 0 50 -4 85 -10 85 -5 0 -10 -16 -10
-35 0 -35 0 -35 -45 -35 -45 0 -45 0 -45 35 0 19 -4 35 -10 35 -6 0 -10 -35
-10 -85z"/>
<path d="M2577 1843 c-40 -102 -40 -103 -30 -103 5 0 14 14 20 30 10 25 17 30
46 30 30 0 37 -4 46 -30 5 -16 14 -30 20 -30 11 0 -53 163 -66 167 -5 2 -21
-27 -36 -64z m62 -25 c1 -5 -12 -8 -29 -8 -19 0 -28 4 -25 13 2 6 10 26 16 42
l11 30 13 -35 c8 -19 14 -38 14 -42z"/>
<path d="M2720 1825 l0 -85 45 0 c25 0 45 5 45 10 0 6 -18 10 -40 10 -38 0
-40 2 -40 30 0 28 3 30 35 30 19 0 35 5 35 10 0 6 -16 10 -35 10 -32 0 -35 2
-35 29 0 28 3 30 43 34 l42 4 -47 1 -48 2 0 -85z"/>
<path d="M2850 1825 c0 -50 4 -85 10 -85 6 0 10 16 10 35 0 28 4 35 19 35 11
0 28 -15 41 -35 12 -19 26 -35 31 -35 5 0 -2 17 -15 38 -24 38 -24 39 -5 55
40 34 11 77 -52 77 l-39 0 0 -85z m83 54 c16 -26 1 -49 -33 -49 -28 0 -30 3
-30 36 0 32 2 35 26 32 15 -2 32 -10 37 -19z"/>
<path d="M3010 1849 c16 -35 27 -71 24 -85 -2 -13 0 -24 6 -24 5 0 10 14 10
30 0 17 12 53 26 81 31 63 26 75 -9 17 l-25 -42 -21 42 c-34 66 -44 49 -11
-19z"/>
<path d="M3140 1895 c-19 -23 -7 -49 32 -70 45 -24 53 -39 31 -61 -11 -10 -26
-14 -45 -10 -15 3 -28 1 -28 -4 0 -6 15 -10 33 -10 76 0 91 61 24 94 -29 14
-37 23 -35 40 2 16 10 21 35 22 48 0 53 14 6 14 -23 0 -46 -6 -53 -15z"/>
</g>
</svg>
